/* XPM */
static char *_9ef9bb8433c48cad80ddb0d26e1412eESOXJ2lKeSfaRoT1[] = {
/* columns rows colors chars-per-pixel */
"34 34 171 2 ",
"   c black",
".  c #010000",
"X  c #000100",
"o  c #020100",
"O  c #000201",
"+  c #030200",
"@  c #000002",
"#  c #000103",
"$  c #040301",
"%  c #050400",
"&  c #000004",
"*  c #000105",
"=  c #7C8400",
"-  c #7F8700",
";  c #7C8704",
":  c #7E8A04",
">  c #7F8A07",
",  c #7F8D06",
"<  c #818900",
"1  c #828A01",
"2  c #818902",
"3  c #838B02",
"4  c #808E07",
"5  c #848C05",
"6  c #858D06",
"7  c #878F06",
"8  c #80860C",
"9  c #848908",
"0  c #818F08",
"q  c #878F08",
"w  c #848F0C",
"e  c #889007",
"r  c #83910A",
"t  c #86940D",
"y  c #87950E",
"u  c #899108",
"i  c #8A9209",
"p  c #89910A",
"a  c #8B930A",
"s  c #8A920B",
"d  c #8C940B",
"f  c #8B930C",
"g  c #89950D",
"h  c #88960F",
"j  c #8D950C",
"k  c #8C940D",
"l  c #8E960F",
"z  c #92990B",
"x  c #848A10",
"c  c #899710",
"v  c #8B9711",
"b  c #8A9811",
"n  c #8E9C15",
"m  c #919910",
"M  c #919912",
"N  c #939B12",
"B  c #909E17",
"V  c #949C15",
"C  c #979F16",
"Z  c #939F19",
"A  c #94A018",
"S  c #9DA51C",
"D  c #ABBA00",
"F  c #ADB716",
"G  c #BCCB10",
"H  c #BBCE12",
"J  c #BCCC11",
"K  c #BECD12",
"L  c #BECE13",
"P  c #BFCF14",
"I  c #BECE15",
"U  c #BFCF16",
"Y  c #BECD18",
"T  c #BDD012",
"R  c #BED115",
"E  c #C0D109",
"W  c #C2D20D",
"Q  c #C1D10E",
"!  c #C4D40F",
"~  c #C0CF10",
"^  c #C0CF12",
"/  c #C2CE12",
"(  c #C3CF13",
")  c #C0CF14",
"_  c #C2CE14",
"`  c #C3CF15",
"'  c #C0CE16",
"]  c #C0CE17",
"[  c #C1CF17",
"{  c #C1CF18",
"}  c #C2CF1D",
"|  c #C1D011",
" . c #C3D011",
".. c #C2D210",
"X. c #C3D311",
"o. c #C1D013",
"O. c #C2D112",
"+. c #C3D213",
"@. c #C4D412",
"#. c #C5D513",
"$. c #C0D015",
"%. c #C1D015",
"&. c #C2D114",
"*. c #C3D215",
"=. c #C1D116",
"-. c #C0D017",
";. c #C2D116",
":. c #C0D317",
">. c #C2D217",
",. c #C3D217",
"<. c #C4D014",
"1. c #C5D115",
"2. c #C4D314",
"3. c #C4D016",
"4. c #C5D117",
"5. c #C4D316",
"6. c #C6D216",
"7. c #C7D317",
"8. c #C1D416",
"9. c #C3D416",
"0. c #C5D415",
"q. c #C6D614",
"w. c #C5D417",
"e. c #C4D517",
"r. c #C6D516",
"t. c #C0D018",
"y. c #C1D118",
"u. c #C1D119",
"i. c #C2D018",
"p. c #C2D019",
"a. c #C3D119",
"s. c #C0D319",
"d. c #C3D318",
"f. c #C2D219",
"g. c #C1D01B",
"h. c #C3D11A",
"j. c #C2D01B",
"k. c #C2D21A",
"l. c #C3D31A",
"z. c #C3D31B",
"x. c #C4D318",
"c. c #C6D218",
"v. c #C4D21A",
"b. c #C4D21B",
"n. c #C5D31B",
"m. c #C1D418",
"M. c #C3D618",
"N. c #C4D419",
"B. c #C5D419",
"V. c #C6D719",
"C. c #C5D51A",
"Z. c #C4D41B",
"A. c #C6D51A",
"S. c #C7D61B",
"D. c #C3D11C",
"F. c #C5D31C",
"G. c #C4D21D",
"H. c #C5D31E",
"J. c #C4D41C",
"K. c #C5D51C",
"L. c #C6D41D",
"P. c #C7D71C",
"I. c #C6D61D",
"U. c #C5D41F",
"Y. c #C6D41F",
"T. c #C7D71E",
"R. c #C8D41A",
"E. c #C8D71C",
"W. c #C3D020",
"Q. c #C4D122",
"!. c #C4D024",
/* pixels */
"K x.x.%.x.x.%.x.5.5./ %.| S.%.0.S.%.S.) S.) x.%.%.0.5.Q +.5.5.{ x.x.",
"x.S.S.x.%.x.%.%.5.5./ S.| 0.%.0.%.S.S.%.S.%.S.x.d.L.x.) 5.x.S.E.%.x.",
"S.S.%.%.%.S.S.%.x.D.x.D.d.d.G.D.L.G.D.d.L.D.L.G.) D.E.D.D.} ) { %.x.",
"%.%.%.%.S.x.%.%.| 5.| %./ %.| | | | %./ %.| T | %.x.x.} D.x.x.5.x.x.",
"x.x.x.x.%.%.%.%.d.d.d.d.l.d.d.d.d.d.l.l.l.T.d.l.x.%.%.%.5.+.Q E x.%.",
"%.%.x.d.%.S.S.S.R P d.P %.P %.P G.U J.l.R L.P S.0.| @.0.5.5.D.x.x.%.",
"%.x.x.%.%.S.S.G d.d.L.R L.R S.d.l.U l.l.P T.R Q.W.D.x.5./ ) W.!.x.x.",
"%.x.x.%.%.x.G D i i j e j i d e 5 2 5 6 5 M s V 9 z F x.@.! +.5.%.x.",
"x.x.D.| d.G.I - @ @ @ @ @ @ @ @ @ @ @ @ @ @ @ @ * $ > Q.5.5.D.d.%.x.",
"x.x.D.| G.d.U 0 @ @ @ @ @ @ @ @ @ @ @ @ @ @ @ @ * @ w d.` ) d.d.x.x.",
"%.x.Q.@.d.d.D.s @ @ @ @ @ @ @ @ @ @ @ @ @ @ @ @ * % - Q.5.S.L.R x.%.",
"5.S.L.+.d.d.L.s @ @ @ @ @ @ @ @ @ @ @ @ @ @ @ @ * @ v Y ` / 8.l.x.%.",
"x.x.D.| S.d.G.q @ @ @ @ @ @ @ @ @ @ @ @ @ @ @ @ @ @ : G.5.7.x.K x.x.",
"x.d.D.| G.d.d.q @ @ @ @ @ @ @ @ @ @ @ @ @ @ @ @ @ @ Z { 7.( 8.S.%.x.",
"%.x.D.+.G.d.d.s @ @ @ @ @ @ @ @ @ @ @ @ @ @ @ @ @ $ g d.5.( 8.T %.x.",
"%.x.D.5.l.R d.v @ @ @ @ @ @ @ @ @ @ @ @ @ @ @ @ @ @ V x.5.| 0.8.x.x.",
"%.5.d.| x.R d.j @ @ @ @ @ @ @ @ @ @ @ @ @ @ @ @ @ @ b G.%.` x.G.x.%.",
"%.5.G.| S.d.d.d @ @ @ @ @ @ @ @ @ @ @ @ @ @ @ @ + @ c d.5.` d.d.x.%.",
"0.5.{ %.d.P L.S @ @ @ @ @ @ @ @ @ @ @ @ @ @ @ @ @ @ h d.` { { d.x.x.",
"| %.d./ d.d.R 2 @ @ @ @ @ @ @ @ @ @ @ @ @ @ @ @ + @ y 8.x.x.{ { %.x.",
"5./ d.0.l.H S.C @ @ @ @ @ @ @ @ @ @ @ @ @ @ @ @ @ @ y { ` c.{ x.%.x.",
"%.5.d.| %.S.d.2 @ @ @ @ @ @ @ @ @ @ @ @ @ @ @ @ @ @ c d.` c.x.{ x.x.",
"5.5.D.%.l.%.L.d @ @ @ @ @ @ @ @ @ @ @ @ @ @ @ @ @ @ v x.` ` { x.x.%.",
"/ %.x.| %.%.P - @ @ @ @ @ @ @ @ @ @ @ @ @ @ @ @ @ @ v D.x.{ x.D.x.%.",
"%.%.d./ d.l.d.2 @ @ @ @ @ @ @ @ @ @ @ @ @ @ @ @ @ % , J.) ` x.%.x.x.",
"%.0.L.| %.%.d.i @ @ @ @ @ @ @ @ @ @ @ @ @ @ @ @ @ @ 0 d.5.` x.%.%.x.",
"0.S.L.| d.) d.j @ @ @ @ @ @ @ @ @ @ @ @ @ @ @ @ @ @ 0 S.` ` S.%.%.x.",
"0.%.d.| d.R d.q @ @ @ @ @ @ @ @ @ @ @ @ @ @ @ @ @ @ r %.5.5.S.%.x.x.",
"5.%.d.| d.%.d.s @ @ @ @ @ @ @ @ @ @ @ @ @ @ @ @ @ @ t { x.1.c.5.x.%.",
"| 5.D.+.d.P L.N @ @ @ @ @ @ @ @ @ @ @ @ @ @ @ @ @ @ c d.c.` x.) x.%.",
"5.5.G.%.d.P J.M @ @ @ @ @ @ @ @ @ @ @ @ @ @ @ @ @ @ n { 5.` S.d.x.x.",
"x.| d.| S.%.R 6 @ @ @ @ @ @ @ @ @ @ @ @ @ @ @ @ @ @ Z x.c.` x.x.%.x.",
"x.5.+.x.%.d.S.x @ @ @ @ @ @ @ @ @ @ @ @ @ @ @ @ @ @ g d.x.` c.%.x.x.",
"x.%.+.D.%.{ 8.8 @ @ @ @ @ @ @ @ @ @ @ @ @ @ @ @ @ @ t d.5.) x.5.x.%."
};
