/* XPM */
static char *_9ebda16796e454fef986c740daae1d6fWKVxIlLBvwBoUej[] = {
/* columns rows colors chars-per-pixel */
"34 34 222 2 ",
"   c None",
".  c #010101",
"X  c #090A05",
"o  c #1A0007",
"O  c #1F1404",
"+  c #290000",
"@  c #3A0100",
"#  c #350000",
"$  c #2C110E",
"%  c #362901",
"&  c #212512",
"*  c #003631",
"=  c #360E36",
"-  c #4A0100",
";  c #440000",
":  c #570105",
">  c #571411",
",  c #670000",
"<  c #720200",
"1  c #690C16",
"2  c #741518",
"3  c #543210",
"4  c #6C3100",
"5  c #712D0B",
"6  c #4E0838",
"7  c #630629",
"8  c #79183C",
"9  c #71132B",
"0  c #542F2A",
"q  c #6C3028",
"w  c #534500",
"e  c #744A00",
"r  c #784D14",
"t  c #76510C",
"y  c #644535",
"u  c #6F6231",
"i  c #00004E",
"p  c #290553",
"a  c #00007A",
"s  c #350C6D",
"d  c #292A7B",
"f  c #731249",
"g  c #693F4A",
"h  c #355974",
"j  c #52514C",
"k  c #714956",
"l  c #774D58",
"z  c #675B51",
"x  c #704B52",
"c  c #577F7F",
"v  c #637377",
"b  c #850F09",
"n  c #962900",
"m  c #A22800",
"M  c #921F37",
"N  c #840F3A",
"B  c #A00036",
"V  c #853935",
"C  c #9D3935",
"Z  c #9E3733",
"A  c #813926",
"S  c #A83234",
"D  c #8B4800",
"F  c #8F5C00",
"G  c #885704",
"H  c #8F5607",
"J  c #8C640D",
"K  c #9A433E",
"L  c #875229",
"P  c #B24735",
"I  c #96652B",
"U  c #8D6236",
"Y  c #87753B",
"T  c #B4613B",
"R  c #A2703E",
"E  c #DF493F",
"W  c #980F50",
"Q  c #AF0057",
"!  c #9B244A",
"~  c #9C2257",
"^  c #813F41",
"/  c #B52848",
"(  c #A72759",
")  c #B42951",
"_  c #AD2760",
"`  c #B72963",
"'  c #B93264",
"]  c #CE0055",
"[  c #E4004E",
"{  c #C72E54",
"}  c #D8355A",
"|  c #DF2646",
" . c #E03953",
".. c #E70068",
"X. c #C32C69",
"o. c #D62C66",
"O. c #CE3267",
"+. c #D73667",
"@. c #EC3B6B",
"#. c #E73768",
"$. c #F33E6F",
"%. c #F63E73",
"&. c #EE316A",
"*. c #97475C",
"=. c #AA4A45",
"-. c #B8514B",
";. c #9A6C4C",
":. c #976F4B",
">. c #BF6642",
",. c #997E75",
"<. c #9B6F7F",
"1. c #B0776F",
"2. c #C3584E",
"3. c #CD5954",
"4. c #D4524C",
"5. c #F3594E",
"6. c #CE6557",
"7. c #D8615B",
"8. c #C9684D",
"9. c #E76A5B",
"0. c #F4655E",
"q. c #FE4274",
"w. c #E34669",
"e. c #D77867",
"r. c #EC6D62",
"t. c #F66B65",
"y. c #F97167",
"u. c #FD736B",
"i. c #F87268",
"p. c #FF7D75",
"a. c #ED7565",
"s. c #52837D",
"d. c #9C8231",
"f. c #AD8C2D",
"g. c #C0A028",
"h. c #AE974A",
"j. c #B6A052",
"k. c #998875",
"l. c #A5867B",
"z. c #DF9B56",
"x. c #CAAD56",
"c. c #FC8A7E",
"v. c #E09D67",
"b. c #D8BB61",
"n. c #F5955B",
"m. c #FEC55D",
"M. c #DFC063",
"N. c #E5C767",
"B. c #FFE375",
"V. c #1A1987",
"C. c #130284",
"Z. c #1D2887",
"A. c #12378F",
"S. c #20318A",
"D. c #03418F",
"F. c #09438F",
"G. c #094695",
"H. c #1C4180",
"J. c #2F5D8F",
"K. c #2E5697",
"L. c #2A4E91",
"P. c #356A93",
"I. c #397697",
"U. c #3563A0",
"Y. c #1F6F96",
"T. c #407F98",
"R. c #607085",
"E. c #EE7193",
"W. c #3F869E",
"Q. c #418299",
"!. c #45889B",
"~. c #67998D",
"^. c #71AA9D",
"/. c #67A293",
"(. c #5191A2",
"). c #57A6AE",
"_. c #7CBCAA",
"`. c #6CBAB7",
"'. c #76C8BE",
"]. c #73CAC2",
"[. c #7ED8C9",
"{. c #918C89",
"}. c #A89587",
"|. c #B3988A",
" X c #9499B7",
".X c #BBA9A1",
"XX c #DA9896",
"oX c #CD928A",
"OX c #E78A83",
"+X c #FF8C82",
"@X c #F8978C",
"#X c #C8A494",
"$X c #CCA58E",
"%X c #FBA496",
"&X c #E1B095",
"*X c #C8B5AC",
"=X c #F0B5AA",
"-X c #CFC6B4",
";X c #F8C8B9",
":X c #EAC8B8",
">X c #FFE5AD",
",X c #BCBDC3",
"<X c #FCB3C8",
"1X c #82DCCB",
"2X c #BCC0C1",
"3X c #84E3D1",
"4X c #D8DADB",
"5X c #D1CDC9",
"6X c #FED9C9",
"7X c #FBD6C5",
"8X c #E1DFDE",
"9X c #F6D4CB",
"0X c #E3E1DD",
"qX c #FCE8DD",
"wX c #DEE7E7",
"eX c #E3E3E2",
"rX c #ECEAE9",
"tX c #F1E9E4",
"yX c #F6F6F6",
"uX c #FCFCFC",
"iX c #FCF7F5",
"pX c #FFF1E6",
/* pixels */
"                                @ @ @ @ @ @ @ @ @ @ @               ",
"                        . . . M } &...w.v.M.z.| [ &.} ! @           ",
"                    ; / } +.} o.o.w.9.n.m.B.>X6X<XE.] B ;           ",
"                1 M { +.@.%.@.o.W K I f.g.x.-X4X.X<.9 1 @ +         ",
"            1 1 ) w.q.X.~ ~ ( f $ . . . . . . . . . X X . . X .     ",
"        . ; ) w.w.O.( 8 . . . . . . . . . . . . . . . X . X . . . . ",
"    # : N ( ` X._ f o X . . . . . . . . . . . . . . . . X X X . . X ",
"    . + N Q Q ` ( 9 . . X b 4.OX5X4XwX8XXX4.XX4XeXwX2X{.X . . .     ",
"    E -.OXXXoX*.7 o $ V -.E 5.=XiXuX4X,X=X%X=X*X4XuXuX2X            ",
"    4.a.=X6X*Xz . . q 3.u.p.c.;XiXwXv . |.9X#X. v rXuX              ",
"p.a.P J |.;X&Xz . . > S r.%X:XqXiX0X{.5 #X:X#Xx {.4XiXpX6X&XI 4     ",
"u.a.-.J 6.i.7.q . . . X o |.:X6X7X;X@Xt.5.y.%X;X9X9X7X6X7X$XI 4     ",
"    r.i.u.u.u.r.2.: * }.:X9X6X=X,.y L T 9.y.p.+X+X+X+X+Xc.a.I e     ",
"    =.=.=.K 3.u.u.7.6.c.%XoX,.j . . . 3 y =.C C C C C S Z q 3 % O . ",
"      . . . q =.7.t.u.y.0.e.l.}.|.l.j . . . . . . . X . . X X . . X ",
"          X . . 0 2.0.0.u.%X;X;X7X=Xl.2 2 V V V V V q 3 3 O X       ",
"              . % w L 8.t.t.t.t.0.0.y.y.y.y.y.y.y.u.0.>.G           ",
"                  X > ! ' ' ` ~ 9 > : 5 5 D D D D H D               ",
"              . N { @.$.@.) 7 7 W W < e .X8XrX0XtXtX5X}.,           ",
"          - 9 f { w.q.q.%.#.} / M 1..X5XrXuXuXuXuXuXuXtX5X|.U       ",
"        # - N ( X.+.#.$.%.%.%. .n k.0XuXuXuXyXyXiXyXuXiXuX5XR <     ",
"          6 f ( ( ( _ +.$.%.%. .m ,.5XrXyXuXuXuXyXuXyXyXeX*XU <     ",
"          A.d = 1 ~ _ _ _ +.q.@.X.! b U -XyXuXuXuXuXeX*XD           ",
"          S.S.Z.s 6 < ! ` ' ' ( 8 : - : r ;.;.;.:.I |.tXiX          ",
"          Z.K.P.P.S.s 6 9 b < , ; 0 ~.'.'._. X'.^.c R. X X          ",
"        V.Z.U.Q.Q.I.J.h h c /././.^.'.[.3X[.[.[.'.).Y.A.C.a         ",
"          Z.L.P.I.Q.!.I.T.).'.[.3X3X[.[.'.'.'.'.`.!.J.L.Z.          ",
"              C.L.I.!.Q.T.P.I.(.'.[.[.'./.a Z.I.P.L.C.              ",
"              V.K.I.Q.Q.Q.Q.I.W.W.Q.!.W.K.S.J.Q.I.K.V.              ",
"                  F.G.G.F.F.F.F.D.D.D.F.A.S.A.G.G.                  ",
"                  l l l k x k k k k x x p i p k x .                 ",
"                  e e G F F F F F F G F f.j.d.e J j.h.Y             ",
"                  . . 3 L r r r r r 4 L x.N.j.& u M.M.h.. .         ",
"                  X . . . . . . . . . . . . . . . . . . .           "
};
