/* XPM */
static char *ce74bc60c11f42c0b34ced0ecbc76798xJQLSp1WbBk1Wtiq[] = {
/* columns rows colors chars-per-pixel */
"34 34 240 2 ",
"   c None",
".  c #010101",
"X  c #020A04",
"o  c #070506",
"O  c #150402",
"+  c #011C01",
"@  c #001500",
"#  c #101311",
"$  c #290001",
"%  c #380200",
"&  c #2A1316",
"*  c #192900",
"=  c #392213",
"-  c #332805",
";  c #000035",
":  c #313032",
">  c #1A1D29",
",  c #420401",
"<  c #560409",
"1  c #4F130A",
"2  c #660000",
"3  c #7B0605",
"4  c #6D1517",
"5  c #462C16",
"6  c #53370A",
"7  c #6E2A12",
"8  c #4A122B",
"9  c #781626",
"0  c #730B2F",
"q  c #483B35",
"w  c #522A2E",
"e  c #652A2B",
"r  c #71332D",
"t  c #00403A",
"y  c #4E411C",
"u  c #7E5000",
"i  c #734F0A",
"p  c #554E2F",
"a  c #6A4F2B",
"s  c #796937",
"d  c #6F6131",
"f  c #000067",
"g  c #00007E",
"h  c #3B2569",
"j  c #2C2573",
"k  c #1A0858",
"l  c #6F1549",
"z  c #7C2E41",
"x  c #461961",
"c  c #4F2363",
"v  c #364175",
"b  c #315952",
"n  c #50534C",
"m  c #704C4F",
"M  c #766C5C",
"N  c #564967",
"B  c #61446A",
"V  c #67496C",
"C  c #6A4C71",
"Z  c #5B7569",
"A  c #5F6364",
"S  c #7A6764",
"D  c #787878",
"F  c #7F6776",
"G  c #556053",
"H  c #8C080B",
"J  c #A00000",
"K  c #8D1031",
"L  c #812124",
"P  c #95243A",
"I  c #833835",
"U  c #943F3C",
"Y  c #8F302A",
"T  c #9B3218",
"R  c #CF0018",
"E  c #C83E00",
"W  c #CF2D15",
"Q  c #8D4D00",
"!  c #855601",
"~  c #8A591C",
"^  c #B15A06",
"/  c #8A5635",
"(  c #8E4D32",
")  c #BE4F3A",
"_  c #927336",
"`  c #A27E2B",
"'  c #887000",
"]  c #C74800",
"[  c #C64411",
"{  c #D04935",
"}  c #871848",
"|  c #9C1947",
" . c #8A0644",
".. c #A90444",
"X. c #A71E4D",
"o. c #AE1653",
"O. c #9B254B",
"+. c #952252",
"@. c #B62B4B",
"#. c #A72855",
"$. c #AE2A48",
"%. c #BA1460",
"&. c #B53765",
"*. c #B62A61",
"=. c #EB0F53",
"-. c #C8285C",
";. c #C8315A",
":. c #D3325B",
">. c #DE0E60",
",. c #C52963",
"<. c #C73164",
"1. c #DB3669",
"2. c #D52B64",
"3. c #E63768",
"4. c #EE3C71",
"5. c #8A5449",
"6. c #BB4843",
"7. c #AD5847",
"8. c #AE534F",
"9. c #977548",
"0. c #8C6A4F",
"q. c #B26E56",
"w. c #987A71",
"e. c #A27974",
"r. c #C3564C",
"t. c #CC5A54",
"y. c #C4515A",
"u. c #CD5251",
"i. c #F35C50",
"p. c #D86958",
"a. c #C86A52",
"s. c #E7685B",
"d. c #F3675F",
"f. c #D54B69",
"g. c #FB4575",
"h. c #E6466E",
"j. c #D27166",
"k. c #E96C65",
"l. c #F56D63",
"z. c #E37269",
"x. c #FC776C",
"c. c #ED7D75",
"v. c #7D9075",
"b. c #788970",
"n. c #9C8439",
"m. c #AD903A",
"M. c #A18516",
"N. c #9B8246",
"B. c #B1974A",
"V. c #94867C",
"C. c #A48579",
"Z. c #AF8C73",
"A. c #EC9258",
"S. c #E2A55C",
"D. c #D68476",
"F. c #CC9179",
"G. c #E49A74",
"H. c #F8C356",
"J. c #1C378B",
"K. c #113490",
"L. c #243C8B",
"P. c #2D2E8D",
"I. c #14448B",
"U. c #0E4E91",
"Y. c #26488B",
"T. c #255696",
"R. c #335A98",
"E. c #2B508D",
"W. c #256295",
"Q. c #386A98",
"!. c #397797",
"~. c #2C58A0",
"^. c #3A78A1",
"/. c #3368A1",
"(. c #41759D",
"). c #447EA0",
"_. c #E8758E",
"`. c #3D849D",
"'. c #43869B",
"]. c #52959D",
"[. c #4C95A4",
"{. c #5698A5",
"}. c #4E8BA4",
"|. c #5CABAF",
" X c #68B9B6",
".X c #67AEAC",
"XX c #65978B",
"oX c #76C7BC",
"OX c #7DD4C5",
"+X c #77CDC2",
"@X c #8C8A8B",
"#X c #BA9489",
"$X c #AD978B",
"%X c #A9A89B",
"&X c #BBA798",
"*X c #B7ABA4",
"=X c #B0B4B1",
"-X c #C88E85",
";X c #C59A8E",
":X c #D8998C",
">X c #E29788",
",X c #FA9C91",
"<X c #F1968F",
"1X c #C7A69B",
"2X c #D5AA98",
"3X c #E2A598",
"4X c #EFA68D",
"5X c #DEACA2",
"6X c #C7B2A9",
"7X c #C8BFB7",
"8X c #D2BDB4",
"9X c #D2B6A9",
"0X c #FBB5A8",
"qX c #E9B9B0",
"wX c #FFBEB6",
"eX c #F4AEAE",
"rX c #D6C4BB",
"tX c #CEC2BA",
"yX c #FBC7B8",
"uX c #EEC7B6",
"iX c #FBE3B9",
"pX c #FBD98C",
"aX c #82DBCA",
"sX c #84E3CE",
"dX c #BBD1D3",
"fX c #C8CBCC",
"gX c #D4CBC4",
"hX c #DAD9D7",
"jX c #CBD1D0",
"kX c #E0D3CB",
"lX c #EFD3CD",
"zX c #DCE3DF",
"xX c #FDE5D9",
"cX c #EFE0DD",
"vX c #DDE4E6",
"bX c #E8EAE9",
"nX c #F3ECE9",
"mX c #FFFFFE",
"MX c #FFF8F1",
"NX c #ECF1F1",
/* pixels */
"              + @ @ . . . . . @ +                                   ",
"          r P P K J J T ( 5.7.....K 4 - .                           ",
"          7 $.;.h._.:X4XS.S.A.h.>.-.@.$.P 9 4                       ",
"          < } f._.eXiXiXpXH.A.z.3.2.2.3.3.:.@.K 9                   ",
"      # O O w m F @X%X%XB.M.' a I #.,.1.4.4.4.<.| 4 ,               ",
"o X X X X X # > : n G n p y - * = 8 0 0 } #.,.1.3.:.@.9 1           ",
"o . o o o o . . . . . o . . O o . . . . o 8 l #.;.3.2.o.0 0         ",
". o o o o o : A D D S S m m 0.).D S m w % o o & +.*.,.%...0 % o     ",
"    . . > : V.fXNXbXkXqX3X3XlXvXvXlX3Xj.P 2 $ & 0 +.&.&.&.O.4 4     ",
"          lXNXNXzXjX6X-X;X1X7XdXhXlXwX,Xi.W Y e & q e.5XeX,Xz.      ",
"        9XxXMXnXhX=X$XC.Z.;X*X=XfXcXxX0Xx.{ U 2 o t w.8XuXG.j.s.d.  ",
"    Q _ 2XyXxXxXhX8X&XF.D.c.-X1XqXcXxXlX>Xa.r % o : w.:X4XF.a.p.x.x.",
"    ~ 7.F.qXyXyXyXwX0X,Xx.i.s.G.5XuXlXqX1X@Xn O < I 6.s.l.p.a.p.l.l.",
". - 6 ~ 7.p.z.z.z.k.k.s.p.r.( e n 5.C.9XqX3XF.8.t.s.l.l.l.s.t.p.    ",
"X # - 5 7 4 H 4 3 9 L r r r : t b A V.#X>X<Xc.l.k.s.t.6.U U I r     ",
"O o . . @ + = w e e e e < e 5.e.$X1X1X>Xz.l.l.l.t.8.r o . . .       ",
"      + 6 a ( 7.y.t.u.r.6.6.j.D.<XeX0X,XG.x.s.{ a + . . o           ",
"          ^ ] ] ] E E E E ) { ) 6.y.u.h.f.y.( 7 - + X               ",
"          Q 9.1X6X8X8X6X&Xe.5.3 3 0  .o.*.;.;.@.P 1 ,               ",
"        $X6XrXhXbXNXNXbXbXfX%Xw.5.} K o.2.4.4.3.:.X.K 4             ",
"    ! 9.rXxXmXmXmXmXmXmXmXmXbXtX#X8.R =.g.g.g.g.1.,.#.0 %           ",
"    ~ 0.8XbXmXmXmXmXmXmXmXmXbXgX&Xt.R =.g.g.1.<.*.*.+.0 <           ",
"        &X6XkXnXmXmXmXmXnXhX6XC.8.f.1.3.h.1.<.*.|  .l c j           ",
"          tXrXgX8XtXgX7X%X$X0.2 H ..-.-.,.%.| l l x j K.K.          ",
"          jXjX%XM M b.V.v.b.Z b q r 9 P O.} 0 c v U.U.I.L.          ",
"          P.~.).{. XoXsXOXOXoXoXXXZ G n G N v Y./.`./.R.L.          ",
"          K.K.).}. X+XaXOXOXOXsXaXOXoX.X].'.!.!.!.!.^.~.L.          ",
"            J./.(.}.}.{.|. X+XOXaXoX X|.[.'.`.`.!.W.E.Y.            ",
"              R.T.T.I.I.E.Q.}.|..X].`.`.!.!.`.^./.L.J.              ",
"              T.T.~.T.T.I.J.I.U.U.U.U.W.W.T.W.W.~.Y.L.              ",
"              ; ; k h h f f h B V B B B B B C C                     ",
"            _ n.n.9._ 9.9.N._ / ( / / / / ( 5.a                     ",
"          d N.B.B.B.n.M.m.B.M.! 7 ! ! ! ! u i 6                     ",
"          y a d s s p p s s d = $ = 5 5 5 = # X                     "
};
