/* XPM */
static char *d179dbf4c12c41e3a338e2cb49fc6b86nRQFzlCAAIX8DI13[] = {
/* columns rows colors chars-per-pixel */
"34 34 245 2 ",
"   c None",
".  c #000000",
"X  c #00000B",
"o  c #0F0006",
"O  c #00001A",
"+  c #180000",
"@  c #230000",
"#  c #280905",
"$  c #330000",
"%  c #3A0001",
"&  c #371904",
"*  c #2C100F",
"=  c #3D2209",
"-  c #272714",
";  c #040133",
":  c #13112C",
">  c #2D1029",
",  c #363731",
"<  c #03292E",
"1  c #470207",
"2  c #490D13",
"3  c #550719",
"4  c #541018",
"5  c #680000",
"6  c #7B0700",
"7  c #641C0D",
"8  c #641C17",
"9  c #422917",
"0  c #4B2F07",
"q  c #742800",
"w  c #673500",
"e  c #72221C",
"r  c #510628",
"t  c #771636",
"y  c #6C0E2B",
"u  c #473735",
"i  c #763E2A",
"p  c #793B33",
"a  c #64322A",
"s  c #354936",
"d  c #7B4D00",
"f  c #794500",
"g  c #784806",
"h  c #55433C",
"j  c #774A2E",
"k  c #3D3F43",
"l  c #000075",
"z  c #16226A",
"x  c #382D6A",
"c  c #7F1E44",
"v  c #472B4F",
"b  c #563B68",
"n  c #49346B",
"m  c #6D3E45",
"M  c #374444",
"N  c #2D4743",
"B  c #5B5957",
"V  c #485151",
"C  c #64534B",
"Z  c #695C55",
"A  c #724948",
"S  c #72665F",
"D  c #5D4F60",
"F  c #62426C",
"G  c #6A4D6B",
"H  c #776664",
"J  c #6F7669",
"K  c #57665F",
"L  c #870004",
"P  c #970000",
"I  c #8B0E39",
"U  c #AB0039",
"Y  c #863231",
"T  c #953B38",
"R  c #922C2F",
"E  c #AA3C36",
"W  c #A12E35",
"Q  c #965500",
"!  c #864D0F",
"~  c #A35018",
"^  c #8B5929",
"/  c #844534",
"(  c #875833",
")  c #965034",
"_  c #A74B3D",
"`  c #AA523F",
"'  c #A5582B",
"]  c #8E6539",
"[  c #851C42",
"{  c #93184A",
"}  c #99214A",
"|  c #913444",
" . c #B8275A",
".. c #AD2A4C",
"X. c #BE2D63",
"o. c #A71B55",
"O. c #CC0A45",
"+. c #CD344A",
"@. c #D13069",
"#. c #E2346E",
"$. c #94594F",
"%. c #A34646",
"&. c #A84D44",
"*. c #B15746",
"=. c #966B49",
"-. c #87675B",
";. c #966958",
":. c #9A7556",
">. c #9B724C",
",. c #BA6547",
"<. c #AB6654",
"1. c #AE6657",
"2. c #846C64",
"3. c #887367",
"4. c #987368",
"5. c #907B72",
"6. c #A87B69",
"7. c #B1776D",
"8. c #C74C46",
"9. c #D3574A",
"0. c #CE544D",
"q. c #D5614C",
"w. c #C7675A",
"e. c #D86951",
"r. c #C96344",
"t. c #E76A5B",
"y. c #F06B5B",
"u. c #D57065",
"i. c #E97565",
"p. c #FE766D",
"a. c #F97469",
"s. c #FF7F73",
"d. c #998474",
"f. c #908C70",
"g. c #A68A79",
"h. c #B58776",
"j. c #B08B70",
"k. c #D1987A",
"l. c #FF837A",
"z. c #EA9679",
"x. c #ECA47A",
"c. c #080786",
"v. c #1B1788",
"b. c #0B1086",
"n. c #18398A",
"m. c #132D8A",
"M. c #223885",
"N. c #13498C",
"B. c #18568F",
"V. c #2A488C",
"C. c #295B96",
"Z. c #324D96",
"A. c #3D759C",
"S. c #356999",
"D. c #2F57A2",
"F. c #386FA2",
"G. c #50769A",
"H. c #7A7A80",
"J. c #47889F",
"K. c #708A88",
"L. c #72AC9C",
"P. c #4889A4",
"I. c #5399A6",
"U. c #4D92A4",
"Y. c #5BA8AD",
"T. c #5FACB1",
"R. c #68A9A9",
"E. c #68B6B5",
"W. c #6CB4AF",
"Q. c #6DC4B8",
"!. c #75C6B9",
"~. c #6BD4C3",
"^. c #7BD5C5",
"/. c #79D9C7",
"(. c #7ACDC0",
"). c #9B8781",
"_. c #9B988B",
"`. c #8F908B",
"'. c #A38C84",
"]. c #A7958A",
"[. c #B79889",
"{. c #A29D9E",
"}. c #A99994",
"|. c #B39D93",
" X c #95AA9A",
".X c #B6A497",
"XX c #ABA499",
"oX c #A5A7A5",
"OX c #B9AAA4",
"+X c #BDB4AC",
"@X c #B8B6B6",
"#X c #AEB4BD",
"$X c #8C99B3",
"%X c #CB9C8D",
"&X c #E8948B",
"*X c #E58B80",
"=X c #CDA38F",
"-X c #CBAA9B",
";X c #D4A897",
":X c #D7B092",
">X c #F8A79A",
",X c #E6AD96",
"<X c #C7B4A9",
"1X c #CBBDB5",
"2X c #C1B7B4",
"3X c #D3B4A6",
"4X c #E5A9A2",
"5X c #FEAFA2",
"6X c #E5B9AB",
"7X c #F0B6AF",
"8X c #BFC4BB",
"9X c #F0C09B",
"0X c #CEC1BA",
"qX c #D5C6BB",
"wX c #E9C2B3",
"eX c #F8C8BA",
"rX c #F4D3B3",
"tX c #DCC494",
"yX c #ABB4C2",
"uX c #82DBCA",
"iX c #85D7C8",
"pX c #84CFC6",
"aX c #B3D3CB",
"sX c #98E2D2",
"dX c #90E1CF",
"fX c #B7E5DB",
"gX c #ACE4D9",
"hX c #D7CAC4",
"jX c #D9D7D6",
"kX c #CED0CD",
"lX c #FBD7C8",
"zX c #E5DCD9",
"xX c #FCDFD4",
"cX c #E1D4CF",
"vX c #EAE2DF",
"bX c #FFEADE",
"nX c #F7EDD2",
"mX c #D7E9E8",
"MX c #C7E7E0",
"NX c #E9E8E6",
"BX c #F5ECE6",
"VX c #E7F4F1",
"CX c #FDFEFD",
"ZX c #F5F8F6",
"AX c #F4F1EE",
/* pixels */
"                            . O ; ; O .                             ",
"                    . O r y L L w g Q ~ T I r .                     ",
"                o > y I ..0.i.z.tXtX,Xx.i.+.U t r *                 ",
"            2 2 t {  .O.+.y.&X9XnXnXrX9Xz.+.O. .o.I y 4             ",
"        + $ y } X.@.#.+._ ] f.{.@XyXoXd.:.~ +.#.@.@...I 1 @         ",
"          3 [  .X. ...t 1 - - , V M , , - & e [ ..@.X.} y           ",
"          3 t [ [ y 1 X . . X . . . . . . . . + r t c t y           ",
"          2 2 . . . M J oXXX}.4.R P $.'.{.oX`.K < O . % 2           ",
"        | e 8 7 A 2.}.kXNXNXhX4Xi.y.&X6XzXVXjX+X).H 7 7 8 Y         ",
"    a.a.9.Y _ w.*XeXxXNXvXaX].%XlXlX;X|.@XkXNXBXlX>Xu.&.p 8.t.t.    ",
"s.y.t.r.! 9 -.=XeXxXBXzXkXoX3.|.lXlX<Xd.{.yXjXBXbXeX,X6.h j ' 0.i.p.",
"l.l.y.,.! . M 5.|.6XlX7X4X4X6XwXlXlXeX6X4X4X7XeX7X3X'.Z . w ' e.p.l.",
"p.a.y.t.` i S '.[.'.7.1.u.*X>X5X>X>X5X>X&Xi.u.7.g.}.].3.A ` q.e.y.p.",
"      y.q.<.[.wX3X2.. . 1 R 8.9.+.8.0.8.E e # . H -X6X=Xj.w.9.      ",
"          >.k.-X;X[.5.C o . . . . . . . . . h S '.-X3X:Xj.          ",
"      % @ @ w ] j.=X;X7.%.T %.%.&.%.%.%.W W 7.=X;Xh.:.j $ $ %       ",
"q j 4.d.|.XXd.] ! $.<.w.w.q.r.*.&.&.&.` ) _ &.1.=.^ j d.}..X}.g.:.^ ",
"6 ;.<XzXBXBXhXg.^ $.;.>.,.,.&.%.) T Y j j j i p i q 4.1XvXBXvXqXj.Q ",
"5 4.hXCXCXCXvX.Xg.<X0X_.Z V K G | I A V N N J f.d.3.].hXAXCXCXzXd.f ",
"5 ;.0XAXCXCXjX.X|.cXjX8Xf.K.L.K.Y R H.R.K.J `.@X+X].].oXaXNXCXzXj.! ",
"6 6.cXZXBXkXhXhX0XOXXX X!.!.!.!.R.L.W.pX!.Q. X X|.1XhX1X1XBXZXzX[.] ",
"    OXqX<Xg.g.-X0X0XqXfXfXsXuX/././.~.^.sXgXaX8X+XOX}.6.5.|.+X|.    ",
"      =.j 8 m S OXzXZXZXVXfXuX~.uXuX~.^.gXmXAXAXjX{.G u * $ %       ",
"          l b.m.$XmXCXZXmXfX^.~.^.^.~./.sXMXVXZXmXyXG.Z.l           ",
"          b.C.A.E.pXdXdXuXuXuXuXuXuXuXuXuXiXdXdXpXE.P.F.b.          ",
"        c.v.D.A.I.E././.uXuXuX^.^.^.^.uXuX/././.(.T.P.F.m.c.        ",
"            n.V.A.I.E.(.uXpX(.E.I.I.T.!.iXuX/.Q.Y.P.Z.Z.            ",
"              v.Z.S.P.Y.E.T.I.A.n.m.S.U.T.E.T.I.F.D.m.              ",
"              V.D.C.C.B.B.N.N.n.v.b.m.n.N.N.B.C.D.D.V.              ",
"              . : v b F F F b x z z x n b F F F b : .               ",
"          V 3.'.j.:.^ ^ ^ ( j h > : u i ( ^ ^ ^ >.h.[.5.H           ",
"        - u 5.[.[.:.! d d d d w - # 0 f d d f f =.[.[.'.Z C         ",
"          - Z 3.3.C 9 = = = 9         9 9 9 & & h -.2.Z u           ",
"              . . . . X X X             . . X X . . . . .           "
};
