/* XPM */
static char *_b1e19ba38f14070c7d4775089f34309IeVEDd6Pgf4vQ3Qp[] = {
/* columns rows colors chars-per-pixel */
"34 34 186 2 ",
"   c None",
".  c #000101",
"X  c #0A0404",
"o  c #06080D",
"O  c #1A0200",
"+  c #190E0B",
"@  c #001C1A",
"#  c #2D0400",
"$  c #350000",
"%  c #3A0101",
"&  c #221305",
"*  c #3F1400",
"=  c #3A061A",
"-  c #3B2403",
";  c #4B0101",
":  c #440000",
">  c #54040A",
",  c #5A0604",
"<  c #460816",
"1  c #5E0717",
"2  c #630918",
"3  c #452B08",
"4  c #473700",
"5  c #593B00",
"6  c #582500",
"7  c #662C00",
"8  c #603300",
"9  c #5D0C24",
"0  c #670929",
"q  c #730325",
"w  c #670D30",
"e  c #690D30",
"r  c #711834",
"t  c #51333E",
"y  c #5C2833",
"u  c #6E3C21",
"i  c #7A2B23",
"p  c #67410F",
"a  c #7B4B00",
"s  c #7A5700",
"d  c #684311",
"f  c #794E14",
"g  c #7E5114",
"h  c #001154",
"j  c #322755",
"k  c #5F3F55",
"l  c #6F4855",
"z  c #724956",
"x  c #764C5A",
"c  c #79604E",
"v  c #7E6E67",
"b  c #89183F",
"n  c #863928",
"m  c #844C00",
"M  c #884A00",
"N  c #8F5C00",
"B  c #845605",
"V  c #935E00",
"C  c #825415",
"Z  c #8C5B17",
"A  c #915E1B",
"S  c #9E681D",
"D  c #896100",
"F  c #955A25",
"G  c #895A31",
"H  c #A85E2F",
"J  c #A75F35",
"K  c #9A6C3E",
"L  c #AD6130",
"P  c #8C1A4A",
"I  c #8E1C46",
"U  c #921D4E",
"Y  c #971E53",
"T  c #851B53",
"R  c #AC165B",
"E  c #9C2255",
"W  c #9E2258",
"Q  c #973852",
"!  c #BC314F",
"~  c #A3235A",
"^  c #B72A56",
"/  c #A53358",
"(  c #9C2766",
")  c #8F2B7C",
"_  c #B32961",
"`  c #B82B65",
"'  c #A72667",
"]  c #C3135A",
"[  c #D8285F",
"{  c #CA3357",
"}  c #D12F5B",
"|  c #C72A62",
" . c #DC366B",
".. c #D73568",
"X. c #CB3370",
"o. c #E2366D",
"O. c #E4396D",
"+. c #E9386A",
"@. c #FB3C6B",
"#. c #ED3D70",
"$. c #F83E71",
"%. c #924E45",
"&. c #A44945",
"*. c #AF7F5D",
"=. c #8F4B75",
"-. c #A2456E",
";. c #AA4E78",
":. c #CA5F4A",
">. c #D15D5F",
",. c #F8436E",
"<. c #F74070",
"1. c #FA4171",
"2. c #F26E69",
"3. c #EB7161",
"4. c #F6706B",
"5. c #998178",
"6. c #B48D70",
"7. c #B28F7B",
"8. c #160085",
"9. c #031187",
"0. c #191285",
"q. c #141186",
"w. c #002886",
"e. c #1F2B89",
"r. c #1D2287",
"t. c #17388E",
"y. c #193C90",
"u. c #212A8B",
"i. c #233B8E",
"p. c #22368B",
"a. c #263F98",
"s. c #653284",
"d. c #08448F",
"f. c #0B4392",
"g. c #074694",
"h. c #28508C",
"j. c #295E96",
"k. c #2A4B8C",
"l. c #007297",
"z. c #196891",
"x. c #2D6098",
"c. c #336698",
"v. c #397494",
"b. c #3B7B96",
"n. c #377693",
"m. c #2D688F",
"M. c #58668F",
"N. c #487495",
"B. c #537193",
"V. c #7A758C",
"C. c #81688C",
"Z. c #91688B",
"A. c #C85B83",
"S. c #3F8399",
"D. c #3898A5",
"F. c #43849A",
"G. c #4A8B9E",
"H. c #4694A2",
"J. c #549AA5",
"K. c #5FA9AC",
"L. c #5DA4AB",
"P. c #5CBEBA",
"I. c #61A8AC",
"U. c #68B6B4",
"Y. c #70BDBA",
"T. c #5DC3BB",
"R. c #6CC1BA",
"E. c #61C1BA",
"W. c #72C4BC",
"Q. c #76C9BF",
"!. c #7ACFC2",
"~. c #77CBC0",
"^. c #7ED6C7",
"/. c #B4978C",
"(. c #C9A18A",
"). c #D5B09F",
"_. c #D2A596",
"`. c #D8B3A3",
"'. c #F1C0AE",
"]. c #ECC5B2",
"[. c #F6C8BB",
"{. c #80D7C8",
"}. c #83DCCA",
"|. c #88E4CF",
" X c #86E1CE",
".X c #8BE9D2",
/* pixels */
"                          Z B 6 % : ; ; ;                           ",
"                  % . . r Q / E Y Y Y ~ P 0 . . %                   ",
"              % e P ^ { } o.o.O. .O.O.o.o...{ ^ P w %               ",
"            0 b ^ X.#.1.,.,.1.1.1.1.1.1.1.1.1.#.X.^ b 0             ",
"        $ 2 U `  .1.1.1.1.<.,.1.1.1.<.1.<.<.1.1.1.O.` U 2 $         ",
"        $ 1 P _  .<.1.1.$.<.$.$.$.,.$.,.1.<.1.1.$. ._ P 1 $         ",
"        $ 1 P _  .1.1.<.<.<.$.,.,.1.<.$.,.<.<.1.,. ._ P 1 $         ",
"        # 2 U ` O.1.1.$.,.1.,.1.$.<.<.1.$.$.1.1.1. .` U 2 #         ",
"      7 * = 0 I ^  .#.1.1.1.1.1.1.,.1.1.<.<.<.<. .^ P w < * 7       ",
"    6.7.c . . : e U ` O.#.#.#.O.#.O.#.O.O.<.O.| U e : . . c 7.6.    ",
"m 6.'.[.7.. . ; % % r ~ ~ ~ ~ ~ ~ ~ ~ ~ W ' W r % % ; . . 7.[.'.*.m ",
"a L 3.4.&.. . X . . % > > > > > > > > > > > > % . . X . . &.4.3.J s ",
"    H L u . . . . . + O O O O O O O O O O O O + . o . X . u H H     ",
"        5 G (.`.5.. . . @ . . . . . . . . o . . . *.`.(.G 5         ",
"          K (.`.)./.=.@ . . X X . X o X . . @ v /.`.`.(.K           ",
"            , a (.].).G , $ . . . . . . # , %._.].(.a ,             ",
"        g S F F B B :.4.>.y o = < < < o y >.4.:.m m F F A C         ",
"    A C 4 > ! ,.,.,.X.s.w.9.) o.,.@.o.) w.w.s.X.,.1.#.{ , 4 g S     ",
"Z g 5 i ! O.$.1.+.| =.N.l.z.M.V.Z.Z.V.M.z.l.M.A.1.$.$.$.o.! i 5 f Z ",
"S Z 3 q ..1.<...] R =.N.D.U.R.E.T.T.U.Y.U.D.M.Z.[ [ ..#.1.} q - Z S ",
"Z f 3 q { O.| R ' =.V.L.R.}.^.W.U.U.~.^.^.~.L.V.=.( R | O.{ n 5 g Z ",
"    $ 1 T ( ' -.V.G.U.{.|.}.Y.N.e.e.N.Y. X^.^.P.D.V.-.' ( Q G D     ",
"        9.y.j.S.U.^.}.^.{.{.{.{.^.^.}.^.^.^.^. X^.U.S.x.f.9.        ",
"        q.y.c.S.S.G.F.G.F.F.I.!.}.}.!.K.G.S.G.S.F.F.N.v.i.0.        ",
"        0.i.c.F.L.Y.~.R.K.b.J.Q. X}.~.J.b.K.W.~.Y.L.F.c.i.0.        ",
"        0.a.j.F.Y.}..X|.Y.G.J.^. X}.~.J.G.R.|..X XY.F.j.a.0.        ",
"          p.h.v.L.W.~.~.I.F.H.U.!.}.^.J.F.K.W.~.R.L.v.h.p.          ",
"            8.u.j.n.n.n.b.F.v.m.G.W.~.J.v.n.n.b.n.j.u.8.            ",
"            0.p.c.F.F.F.F.F.v.k.r.u.k.v.F.F.b.F.F.c.p.0.            ",
"                f.d.g.d.d.d.t.t.u.u.t.y.d.d.f.g.f.f.                ",
"              . t l x z z z k j h h j k z z l x z k .               ",
"            3 p m N V N V V a - . . 3 a V V N V N a d 3             ",
"        . & p C g f f f f g d - . . - d g f f f f g g d & .         ",
"        X o . . . . . . . . .         . . o . . . . . . . o         "
};
