/* XPM */
static char *_05ce6790e6e4ffd827323957ce0fdc5wJFlYK3IKVqBRDCy[] = {
/* columns rows colors chars-per-pixel */
"34 34 220 2 ",
"   c None",
".  c #0F5805",
"X  c #105906",
"o  c #105A07",
"O  c #115B07",
"+  c #105C06",
"@  c #115D07",
"#  c #115F07",
"$  c #125A08",
"%  c #125B09",
"&  c #125D08",
"*  c #135C09",
"=  c #135D09",
"-  c #125E08",
";  c #135E09",
":  c #135C0A",
">  c #135D0A",
",  c #135E0A",
"<  c #135F0A",
"1  c #145D0B",
"2  c #145E0A",
"3  c #145F0A",
"4  c #165D0C",
"5  c #165F0C",
"6  c #175E0D",
"7  c #175E0E",
"8  c #185E0E",
"9  c #185F0E",
"0  c #195F0F",
"q  c #195F10",
"w  c #14610A",
"e  c #15600B",
"r  c #15610B",
"t  c #16600C",
"y  c #17600D",
"u  c #17610D",
"i  c #16630C",
"p  c #17610E",
"a  c #19600F",
"s  c #19610F",
"d  c #186010",
"f  c #196010",
"g  c #196011",
"h  c #1A6111",
"j  c #196210",
"k  c #1B6112",
"l  c #1B6212",
"z  c #1B6213",
"x  c #1C6112",
"c  c #1C6213",
"v  c #1D6213",
"b  c #196410",
"n  c #1B6612",
"m  c #1C6413",
"M  c #1D6314",
"N  c #1E6314",
"B  c #1F6315",
"V  c #1F6415",
"C  c #1F6416",
"Z  c #1F6517",
"A  c #1F6915",
"S  c #1F6816",
"D  c #206416",
"F  c #206517",
"G  c #206A16",
"H  c #206518",
"J  c #216518",
"K  c #216619",
"L  c #226619",
"P  c #23661A",
"I  c #22671A",
"U  c #23671B",
"Y  c #24671B",
"T  c #216818",
"R  c #226919",
"E  c #24681B",
"W  c #25681B",
"Q  c #25691B",
"!  c #256A1B",
"~  c #236C1A",
"^  c #26681C",
"/  c #26691C",
"(  c #26691D",
")  c #276A1E",
"_  c #266F1C",
"`  c #276E1E",
"'  c #286A1F",
"]  c #27701D",
"[  c #28701E",
"{  c #296B20",
"}  c #2A6B21",
"|  c #2B6C22",
" . c #2C6D23",
".. c #2C6D24",
"X. c #2D6E24",
"o. c #2E6F25",
"O. c #2F6F26",
"+. c #2B7121",
"@. c #2D7224",
"#. c #2F7525",
"$. c #2F7426",
"%. c #307027",
"&. c #317627",
"*. c #317028",
"=. c #327129",
"-. c #327229",
";. c #327329",
":. c #33722A",
">. c #33722B",
",. c #317428",
"<. c #34732C",
"1. c #35742D",
"2. c #36742D",
"3. c #35762C",
"4. c #37752E",
"5. c #38752F",
"6. c #337829",
"7. c #35792C",
"8. c #367A2D",
"9. c #397630",
"0. c #397731",
"q. c #3A7732",
"w. c #3B7833",
"e. c #3A7C31",
"r. c #3A7E31",
"t. c #3B7D32",
"y. c #3B7F32",
"u. c #3C7934",
"i. c #3D7935",
"p. c #3E7A35",
"a. c #3E7B36",
"s. c #3F7B36",
"d. c #3E7E35",
"f. c #3E7D36",
"g. c #3F7F36",
"h. c #407B37",
"j. c #418338",
"k. c #42813A",
"l. c #428439",
"z. c #43853B",
"x. c #44823C",
"c. c #46873E",
"v. c #478240",
"b. c #498741",
"n. c #498542",
"m. c #4B8743",
"M. c #4B8A43",
"N. c #4F8B46",
"B. c #518849",
"V. c #518C49",
"C. c #518E49",
"Z. c #518F49",
"A. c #538D4B",
"S. c #538C4C",
"D. c #568F4E",
"F. c #54904C",
"G. c #54914C",
"H. c #56904E",
"J. c #56924E",
"K. c #5A9552",
"L. c #5B9553",
"P. c #5B9653",
"I. c #5C9155",
"U. c #5E9656",
"Y. c #5E9857",
"T. c #5F9758",
"R. c #609659",
"E. c #609859",
"W. c #61985A",
"Q. c #629A5A",
"!. c #649B5C",
"~. c #669D5E",
"^. c #679A60",
"/. c #689E61",
"(. c #699F62",
"). c #6B9E64",
"_. c #6C9E66",
"`. c #69A062",
"'. c #6BA064",
"]. c #6CA065",
"[. c #6CA165",
"{. c #6DA067",
"}. c #6DA167",
"|. c #70A469",
" X c #71A46A",
".X c #72A36C",
"XX c #74A66D",
"oX c #74A76D",
"OX c #74A66E",
"+X c #75A76E",
"@X c #76A96F",
"#X c #77A670",
"$X c #79AA72",
"%X c #7AAA73",
"&X c #7BAA75",
"*X c #7CAC75",
"=X c #7FAD78",
"-X c #7FAE78",
";X c #80AC7A",
":X c #81AF7A",
">X c #82B07B",
",X c #82B07C",
"<X c #84B07E",
"1X c #84B17E",
"2X c #85B27F",
"3X c #86B380",
"4X c #89B383",
"5X c #8BB585",
"6X c #8CB686",
"7X c #8DB787",
"8X c #8EB788",
"9X c #8FB889",
"0X c #90B98B",
"qX c #92BA8D",
"wX c #93BB8E",
"eX c #95BC90",
"rX c #97BD92",
"tX c #99BE94",
"yX c #9BBF96",
"uX c #9CC197",
/* pixels */
"                                                                    ",
"                                                                    ",
"                                                                    ",
"                                                                    ",
"                                                                    ",
"                                                                    ",
"                                                                    ",
"                            rX0X4X:X#X_.                            ",
"                        uXyXwX7X2X&X.X^.I.B.                        ",
"                      yXeXwX7X2X=XOX).R.S.v.u.                      ",
"                  eXeXwX0X7X3X*XOX_.E.D.n.f.;.( q                   ",
"                  9X7X5X3X>X*XoX{.E.D.m.f.;.( f .                   ",
"                2X2X:X:X*X@X|.`.Y.F.n.d.,.! 4 . % 4                 ",
"                $X$X@X@X|.`.!.K.Z.c.r.#.R 4 % 4 4 f                 ",
"              {.{.{.`.~.E.K.F.M.z.8.+.S - - 4 8 c c C               ",
"              E.R.U.K.J.F.M.z.y.&.] s @ 4 4 q c N P P               ",
"              Z.Z.N.M.c.j.y.6.[ A w @ w 8 N N C P ( '               ",
"              k.k.g.r.8.#.] G t w @ s f N C P ( ( {  .              ",
"              4.;.+.{ ~ n w @ w t s c D P Y ' { ....O.              ",
"              ( R m t @ - - t f f C C ! ( {  .O.%.;.:.              ",
"                . % - - s s f N P R ^ { | O.O.:.<.4.                ",
"                - 4 q q c c D R ( ( | ..O.:.<.4.5.9.                ",
"                  q f N N P Y ' } ....;.<.4.9.q.u.                  ",
"                  N N P Y ' '  .@.*.<.4.9.9.i.u.u.                  ",
"                      ( { { ..;.;.<.4.w.u.u.h.                      ",
"                        ....O.:.<.9.9.u.h.h.                        ",
"                            :.4.9.9.u.u.                            ",
"                                                                    ",
"                                                                    ",
"                                                                    ",
"                                                                    ",
"                                                                    ",
"                                                                    ",
"                                                                    "
};
