/* XPM */
static char *_d0c11fd57424adbf63ffac1968e44a0N1KDTXKGuQttdi2q[] = {
/* columns rows colors chars-per-pixel */
"32 32 203 2 ",
"   c #91745E",
".  c #8F755F",
"X  c #9B785D",
"o  c #AB8C6B",
"O  c #B8A98D",
"+  c #8E735C",
"@  c #BBB69A",
"#  c #8F7F64",
"$  c #968169",
"%  c #977A65",
"&  c #9E7D69",
"*  c #927660",
"=  c #936F5C",
"-  c #B9AE94",
";  c #B4AC91",
":  c #A48B75",
">  c #8F785E",
",  c #8D8369",
"<  c #8C775B",
"1  c #A49179",
"2  c #A3806B",
"3  c #B0A689",
"4  c #97705D",
"5  c #B3A98D",
"6  c #927E62",
"7  c #9F8E74",
"8  c #96795F",
"9  c #8F6F5A",
"0  c #978166",
"q  c #8B725B",
"w  c #ACA285",
"e  c #918A6D",
"r  c #8B6D57",
"t  c #9E7863",
"y  c #9A705B",
"u  c #9F8870",
"i  c #A18C7A",
"p  c #ABA689",
"a  c #A2947D",
"s  c #9A7962",
"d  c #967661",
"f  c #AF8665",
"g  c #C7BBA0",
"h  c #8F7257",
"j  c #8A7A60",
"k  c #967459",
"l  c #938168",
"z  c #BDC0A4",
"x  c #847456",
"c  c #A39681",
"v  c #99856F",
"b  c #87765D",
"n  c #A48668",
"m  c #9B866C",
"M  c #94735E",
"N  c #A0836C",
"B  c #8C7F65",
"V  c #988D71",
"C  c #998E79",
"Z  c #917A62",
"A  c #A27B62",
"S  c #AEA388",
"D  c #BBB496",
"F  c #A5A084",
"G  c #947B69",
"H  c #A0785D",
"J  c #87654F",
"K  c #9C836D",
"L  c #A88E76",
"P  c #94856B",
"I  c #97876A",
"U  c #CEBFA6",
"Y  c #9B8165",
"T  c #876953",
"R  c #9F8F78",
"E  c #7E654E",
"W  c #ACA891",
"Q  c #C6C4A7",
"!  c #B3B698",
"~  c #C1BCA1",
"^  c #CCC2A9",
"/  c #8F7B67",
"(  c #8B7254",
")  c #A69C85",
"_  c #B08D6E",
"`  c #A8937B",
"'  c #8C7963",
"]  c #AA9E89",
"[  c #8B755E",
"{  c #8E7B61",
"}  c #9C8A75",
"|  c #A99A7D",
" . c #A37C6A",
".. c #997E64",
"X. c #9B8E72",
"o. c #A79C82",
"O. c #BFB59A",
"+. c #AB8067",
"@. c #9D886C",
"#. c #94836E",
"$. c #AA9E82",
"%. c #9D7D60",
"&. c #A88064",
"*. c #AB927C",
"=. c #906E55",
"-. c #947A62",
";. c #977D69",
":. c #81674F",
">. c #946D5A",
",. c #A5A08C",
"<. c #9E9F80",
"1. c #BDAF95",
"2. c #D1C6A9",
"3. c #BAB6A0",
"4. c #9C927D",
"5. c #B09E89",
"6. c #95725E",
"7. c #AAA28D",
"8. c #9C745B",
"9. c #7B644A",
"0. c #816A52",
"q. c #B6B091",
"w. c #BEB4A0",
"e. c #B8AD9A",
"r. c #866F50",
"t. c #968A6B",
"y. c #A19E89",
"u. c #857059",
"i. c #AB9881",
"p. c #936952",
"a. c #A5816F",
"s. c #8C6F5A",
"d. c #BCAF9D",
"f. c #8F6C57",
"g. c #B6A28A",
"h. c #8C6850",
"j. c #876D55",
"k. c #A19377",
"l. c #C3B399",
"z. c #BDB99B",
"x. c #947C64",
"c. c #857B62",
"v. c #9F8266",
"b. c #969275",
"n. c #8D866F",
"m. c #B2B092",
"M. c #C6BEA4",
"N. c #A58A6F",
"B. c #907153",
"V. c #927764",
"C. c #A59888",
"Z. c #7A6C53",
"A. c #9F7360",
"S. c #A48F75",
"D. c #C3B49E",
"F. c #9F9881",
"G. c #AF9177",
"H. c #B3A58D",
"J. c #A07467",
"K. c #B49E83",
"L. c #AF997F",
"P. c #A68571",
"I. c #816D53",
"U. c #BFA98C",
"Y. c #AE8272",
"T. c #BBAC92",
"R. c #BABD9E",
"E. c #948773",
"W. c #C8B79F",
"Q. c #928973",
"!. c #C0B89C",
"~. c #B4A896",
"^. c #C2C1A2",
"/. c #C9BDA8",
"(. c #C2C0A8",
"). c #C7C2AE",
"_. c #B3B098",
"`. c #B38F7B",
"'. c #95977C",
"]. c #D7C4A9",
"[. c #B17E66",
"{. c #A4A586",
"}. c #AB9375",
"|. c #928E74",
" X c #D0CEAF",
".X c #DDD4B9",
"XX c #CCC9B4",
"oX c #CEBDAF",
"OX c #8D7D69",
"+X c #858165",
"@X c #D9CEB6",
"#X c #746345",
"$X c #BCA992",
"%X c #C08778",
"&X c #A59A7E",
"*X c #AA7C60",
"=X c #BCBD9E",
"-X c #C9CDB3",
";X c #CBB69B",
":X c #B7B493",
">X c #EDDEC4",
",X c #91755D",
"<X c #8F786B",
/* pixels */
"&.A X k X X B.B.( ( x x j.h =.  % f.f.M M   * r 0.l..Xu -.d & P.",
"P # l $ 0 Z . > < < x b { 6 j # j $ : $ [ # j x P !.Q o.k.u v } ",
"_.W W 7.] 5.5.5 q.D 5 q.:X! ! ^.@ ~ U g g g - 3 ; z.@ z.!.1.- D.",
"n.n., c.B #.#.# 6 0 Y u I e <.p b., # l m m $ l P P j j j { l v ",
"j.T :.9.9.9.#X9.J J h.J E Z 1.U 7 u.q r r 9   * + s.r T J T E j.",
"L Y x.6 6 6 m $.3 &X$.$.w @ .X>Xg.u : : *.*.: : u K K N N N K : ",
"3.m.; - 5 $.o.O g M.Q Q  X^ g Q @ @ - - O.@ D !.O.D - - - D ; D ",
"W 3.(.] R v l 6 0 1 O 1 $ K ;.V k.1 7 7 R <._.F.V R 7 7 7 7 R F ",
"OX; M.l 9 k Y Y > t.W.*.  % x.k 8.y t 2 K i.l.b :.>.p.p.p.h.h.< ",
", M.2.@.v.A %.n ..| 2.` %  .& H H A A %...O ]...9 X H H H X k 8 ",
"+X^ ^ # ,Xs 8 Y % $.2.k.+ 6.= k k =.X Y 6 k.O > T =.= =.h B.=.> ",
",.XX@X~.a } R *.L.q. Xg O K.L a a } i.O 5 m.@ ) C R } } R a i c ",
")./.oXoXd.d.e.5.O w m.O.l.l.U XX(.e.w.w.3.z (.w.e.d.e.~.d.w.D.).",
"#.G % G ' o.S q + u.x q < t.D ).4.OX#.K v P $ ;.$ $ $ G G V.;.} ",
"s >.p.h.j.L.U.r = s.9 f.h I ^.W.[ 9 t A.y A +.8.8.y y y A.y y s ",
"J.>.= r 0.i.H.s.>.M = 4 >.N ].;X+ h 8 8 -.6 * 4 4 t t X X h k t ",
"* + q I.B H.; B < { { -.> I @ O # Z -.> Z # > 4 = = 4 M d   [ / ",
"4.C c 7.W 7.W p 3 w p 3 S p R.=Xm.q.; w w S | L.K.` 1 1 i i C.C.",
"] ) ] ) ) 4.4.a 7 e e V X.V b.'.<.{.p F F S $.S p F _.3.,.F.C.] ",
"v / ' u.' / b .   0.I.q d -.< b B # P > . * ,X0 # , ) c / G % & ",
"&   V.  . . [ s t + ( %  .2 & 2 a.& a.&  . .J.t ;.g.W.*.d J. .a.",
"2 t 6.9 + * q 9 ,Xx I.{ % % x.% V./ G ' ;.  6.6.E 1.2.m 6.A.s 2 ",
"*.L N u : $ 0 m u V t.X.S.` ` c a c a C C n.E.i Q.R.z b.X.1 1 1 ",
"5 5 S S 5 ; 5 o.| | 3 w w H.D.O.T.$Xg.5.o.<.F.c 7.,.y.F p 3 H.; ",
"S.@.I B t.z.{.x b b 6 $ # , 5 | @.N.N.N.@.I m %.v.o o n v.n u ` ",
"Y.+.2 8 > O w I.r d 4 f.r { O.K.n o o _ o n o f f f [.*XH &.&.f ",
"%X[.Y.A 8 U.3 I.s.6.4 = T ' ^ U.o o _ _ _ +._ o f f +.+.&.n &.f ",
"`.P.N 0 X.D F c.B B l #., |.z g.S.L }.G.G.G.L I 0 x.v.P.: : v i ",
"1.- ; ; ~ Q R.! ~ ^.~ z z Q -X^ /./.^ U U U g M.@ @ ~ - T.T.~.3.",
"V e |.e e , +Xc., , Q.Q.E.C #.n.C '.y.y.,.,.y._.! z z <.b.X.e e ",
"% +   +   9 T J J :.:.0.E E E :.r.r.r.r.( ( h q Z.W 2.0 h d k X ",
"L 2 & & & s d = M   + > [ q . d % Z . * * d s * c.~ @X}.t 2 a.Y."
};
